# xmcd
#
# Track frame offsets:
#	150
#	13902
#	26981
#	40956
#	54743
#	68191
#	81733
#	94767
#	107600
#	120647
#	133488
#	146839
#	159550
#	171393
#	185156
#	199287
#	213576
#	227616
#	242689
#	257072
#	272136
#	286108
#	299971
#	314306
#	328653
#	342801
#
# Disc length: 4753 seconds
#
# Revision: 5
# Processed by: cddbd v1.5.2PL0 Copyright (c) Steve Scherf et al.
# Submitted via: EZCDAudioConverter 1.0.6.1
#
DISCID=ad128f1a
DTITLE=Amédé Ardoin - I'm Never Comin' Back
DYEAR=1995
DGENRE=Cajun
TTITLE0=Amadie Two-Step
TTITLE1=Lav Valse A Austin Ardoin
TTITLE2=Blues De Basile
TTITLE3=La Valse A Thomas Ardoin
TTITLE4=Two Step D'Elton
TTITLE5=La Valse De Gueydan
TTITLE6=Valse A Alice Poulard
TTITLE7=One Step D'Oberlin
TTITLE8=Valse De Opelousas
TTITLE9=One Step Des Chameaux
TTITLE10=Les Blues De Voyage
TTITLE11=Lav Valse De Amities
TTITLE12=Les Blues De Crowley
TTITLE13=Oberlin
TTITLE14=Tostape De Jennings
TTITLE15=Le Midland Two Step
TTITLE16=La Valse Des Chantiers Petroliperes
TTITLE17=Valse Brunette
TTITLE18=Tortope D'Osrun
TTITLE19=La Valse Du Ballard
TTITLE20=La Turtape De Saroied
TTITLE21=Valse De La Pointe D'Eglise
TTITLE22=Les Blues De La Prison
TTITLE23=Valse De Mon Vieux Village
TTITLE24=Si Dur D'Etre Seul
TTITLE25=Aimez-Moi Ce Soir
EXTD=
EXTT0=
EXTT1=
EXTT2=
EXTT3=
EXTT4=
EXTT5=
EXTT6=
EXTT7=
EXTT8=
EXTT9=
EXTT10=
EXTT11=
EXTT12=
EXTT13=
EXTT14=
EXTT15=
EXTT16=
EXTT17=
EXTT18=
EXTT19=
EXTT20=
EXTT21=
EXTT22=
EXTT23=
EXTT24=
EXTT25=
PLAYORDER=
